%
M48
M72
T01C0.0236
T02C0.0400
%
T01
X2095Y3250
X2470Y8750
X7845Y8750
X10595Y9125
X12845Y10000
X13595Y10000
X13595Y11250
X14095Y11250
X14720Y11750
X14095Y12375
X12845Y12375
X12845Y11250
X10345Y12250
X7970Y11750
X13345Y8625
X11970Y7500
X11970Y6250
X15720Y10000
X17720Y5750
X19095Y5250
X24970Y3250
T02
X24095Y4250
X23095Y4250
X23095Y5250
X24095Y5250
X24095Y6250
X23095Y6250
X23095Y7250
X24095Y7250
X24095Y8250
X23095Y8250
X23095Y9250
X24095Y9250
X24095Y10250
X23095Y10250
X23095Y11250
X24095Y11250
X24095Y12250
X23095Y12250
X23095Y13250
X24095Y13250
X21095Y13250
X20095Y13250
X20095Y12250
X21095Y12250
X21095Y11250
X20095Y11250
X20095Y10250
X21095Y10250
X21095Y9250
X20095Y9250
X20095Y8250
X21095Y8250
X21095Y7250
X20095Y7250
X20095Y6250
X21095Y6250
X21095Y5250
X20095Y5250
X20095Y4250
X21095Y4250
X15470Y4500
X14470Y4500
X13470Y4500
X12470Y4500
X11470Y4500
X10470Y4500
X7095Y4250
X6095Y4250
X6095Y5250
X7095Y5250
X7095Y6250
X6095Y6250
X6095Y7250
X7095Y7250
X7095Y8250
X6095Y8250
X6095Y9250
X7095Y9250
X7095Y10250
X6095Y10250
X6095Y11250
X7095Y11250
X7095Y12250
X6095Y12250
X6095Y13250
X7095Y13250
X4095Y13250
X3095Y13250
X3095Y12250
X4095Y12250
X4095Y11250
X3095Y11250
X3095Y10250
X4095Y10250
X4095Y9250
X3095Y9250
X3095Y8250
X4095Y8250
X4095Y7250
X3095Y7250
X3095Y6250
X4095Y6250
X4095Y5250
X3095Y5250
X3095Y4250
X4095Y4250
X15470Y12250
X16470Y12250
X17470Y12250
X18470Y12250
X18470Y11250
X17470Y11250
X16470Y11250
X16470Y10250
X17470Y10250
X18470Y10250
X18470Y13250
X17470Y13250
X16470Y13250
X15470Y13250
M30
